<?xml version="1.0" encoding="UTF-8" standalone="no"?>
<!-- Created with Inkscape (http://www.inkscape.org/) -->
<!--
This file is part of pasuman (https://github.com/norbjd/pasuman).

pasuman is a command-line password manager.
Copyright (c) 2022 norbjd

This program is free software; you can redistribute it and/or modify
it under the terms of the GNU General Public License as published by
the Free Software Foundation, version 3.

This program is distributed in the hope that it will be useful, but
WITHOUT ANY WARRANTY; without even the implied warranty of
MERCHANTABILITY or FITNESS FOR A PARTICULAR PURPOSE.  See the GNU
General Public License for more details.

You should have received a copy of the GNU General Public License
along with this program.  If not, see <http://www.gnu.org/licenses/>.
-->
<svg xmlns:inkscape="http://www.inkscape.org/namespaces/inkscape" xmlns:sodipodi="http://sodipodi.sourceforge.net/DTD/sodipodi-0.dtd" xmlns="http://www.w3.org/2000/svg" xmlns:svg="http://www.w3.org/2000/svg" width="835mm" height="222mm" viewBox="0 0 835 222" version="1.1" id="svg5" xml:space="preserve" inkscape:version="1.2 (dc2aedaf03, 2022-05-15)" sodipodi:docname="banner.svg">
  <sodipodi:namedview id="namedview" pagecolor="#ffffff" bordercolor="#666666" borderopacity="1.0" inkscape:showpageshadow="2" inkscape:pageopacity="0.0" inkscape:pagecheckerboard="true" inkscape:deskcolor="#d1d1d1" inkscape:document-units="mm" showgrid="false" inkscape:zoom="0.31018945" inkscape:cx="652.82685" inkscape:cy="1070.3136" inkscape:window-width="956" inkscape:window-height="1033" inkscape:window-x="960" inkscape:window-y="22" inkscape:window-maximized="1" inkscape:current-layer="layer1"/>  
  <g inkscape:label="Layer 1" inkscape:groupmode="layer" id="layer1" transform="translate(-1.2850686,-2.1304231)">
    <path style="fill:#ffdd55;fill-opacity:1;stroke:#000000;stroke-width:0.25176px;stroke-linecap:butt;stroke-linejoin:miter;stroke-opacity:1" d="M 45.063083,63.485893 H 181.65528 l 40.51793,42.041637 -60.72023,116.3849 H 65.469049 L 3.9794427,106.04388 Z" id="path2016"/><path d="m 85.773309,86.186201 c 0,-1.879591 1.4732,-3.403582 3.3528,-3.403582 1.8288,0 3.3528,1.523991 3.3528,3.403582 0,1.828788 -1.524,3.352779 -3.3528,3.352779 -1.8796,0 -3.3528,-1.523991 -3.3528,-3.352779 z m -2.3368,0 c 0,3.149582 2.54,5.689567 5.6896,5.689567 3.0988,0 5.6896,-2.539985 5.6896,-5.689567 0,-3.149582 -2.5908,-5.74037 -5.6896,-5.74037 -3.1496,0 -5.6896,2.590788 -5.6896,5.74037 z m -26.3652,20.116719 c -1.778,4.2672 -4.6228,9.6012 -7.8232,13.8176 l 4.318,1.8288 c 2.8448,-4.064 5.588,-9.2964 7.4676,-13.97 2.1336,-5.1816 3.9116,-12.699973 4.6228,-15.849555 0.2032,-1.117594 0.6096,-2.590785 0.9144,-3.708379 l -4.5212,-0.965194 c -0.6604,5.892767 -2.794,13.614328 -4.9784,18.846728 z m 24.9936,-1.9304 c 2.1336,5.4356 4.4704,12.2936 5.7404,17.4752 l 4.5212,-1.4732 c -1.3208,-4.572 -4.0132,-12.3444 -6.096,-17.3736 -2.1336,-5.384785 -5.3848,-12.395146 -7.4168,-16.052725 l -4.1148,1.371594 c 2.2352,3.759176 5.334,10.820337 7.366,16.052731 z" id="path1070" style="font-size:50.8px;font-family:'Noto Sans CJK JP';-inkscape-font-specification:'Noto Sans CJK JP';letter-spacing:0px;word-spacing:0px;stroke-width:0.264583"/>
    <path d="m 172.09366,86.592598 -2.5908,-1.981188 c -0.8128,0.253997 -2.1336,0.406397 -3.81,0.406397 -1.8796,0 -17.5768,0 -19.6088,0 -1.524,0 -4.4196,-0.2032 -5.1308,-0.3048 v 4.622776 c 0.5588,-0.0508 3.3528,-0.254 5.1308,-0.254 1.778,0 17.9832,0 19.812,0 -1.27,4.216376 -4.9784,10.210743 -8.4328,14.122337 -5.2324,5.842 -12.7508,11.8872 -20.9296,15.0876 l 3.2512,3.4036 c 7.5184,-3.4036 14.3764,-8.9916 19.812,-14.8336 5.1816,4.6228 10.5664,10.5664 13.97,15.0876 l 3.556,-3.048 c -3.302,-4.0132 -9.4996,-10.6172 -14.8336,-15.1892 3.6068,-4.571994 6.8072,-10.515561 8.5344,-14.884334 0.3048,-0.711197 0.9652,-1.828791 1.27,-2.235188 z" id="path1072" style="font-size:50.8px;font-family:'Noto Sans CJK JP';-inkscape-font-specification:'Noto Sans CJK JP';letter-spacing:0px;word-spacing:0px;stroke-width:0.264583"/>
    <path d="m 69.085509,180.82929 c 3.2004,3.302 7.2644,7.7724 9.144,10.3632 l 3.7084,-2.9464 c -2.032,-2.4892 -5.6388,-6.2992 -8.6868,-9.3472 8.382,-6.4008 14.8336,-14.6812 18.4912,-20.6248 0.3048,-0.4572 0.762,-1.016 1.27,-1.5748 l -3.2004,-2.5908 c -0.7112,0.254 -1.8796,0.4064 -3.302,0.4064 -5.08,0 -27.686,0 -30.2768,0 -1.778,0 -3.7592,-0.2032 -5.1816,-0.4064 v 4.572 c 1.016,-0.1016 3.2004,-0.3048 5.1816,-0.3048 2.9464,0 25.3492,0 29.8704,0 -2.54,4.572 -8.382,12.0396 -15.8496,17.6276 -3.4544,-3.0988 -7.62,-6.4516 -9.4996,-7.8232 l -3.302,2.6416 c 2.6924,1.8796 8.5852,6.9596 11.6332,10.0076 z" id="path1074" style="font-size:50.8px;font-family:'Noto Sans CJK JP';-inkscape-font-specification:'Noto Sans CJK JP';letter-spacing:0px;word-spacing:0px;stroke-width:0.264583"/>
    <path d="m 141.33426,152.99089 -2.8956,3.0988 c 3.7592,2.54 10.1092,7.9756 12.6492,10.6172 l 3.2004,-3.2004 c -2.8448,-2.8448 -9.3472,-8.128 -12.954,-10.5156 z m -4.3688,34.036 2.6924,4.1656 c 8.4328,-1.5748 14.8844,-4.6736 19.9644,-7.874 7.6708,-4.826 13.6144,-11.7348 17.0688,-18.0848 l -2.4384,-4.318 c -2.9464,6.2484 -9.144,13.7668 -16.9672,18.6944 -4.826,2.9972 -11.43,6.096 -20.32,7.4168 z" id="path1076" style="font-size:50.8px;font-family:'Noto Sans CJK JP';-inkscape-font-specification:'Noto Sans CJK JP';letter-spacing:0px;word-spacing:0px;stroke-width:0.264583"/>
    <path id="path947-0" style="fill:#4d4d4d;fill-opacity:1;stroke:#000000;stroke-width:2.48774;stroke-linecap:butt;stroke-linejoin:miter;stroke-dasharray:none;stroke-opacity:1" d="m 113.26385,3.3757359 c -0.6475,-0.0033 -1.29486,-9.55e-4 -1.94169,0.0072 -10.5008,0.195998 -21.070071,1.8139061 -30.867029,5.6276907 -4.631109,1.8469434 -9.220065,4.1474464 -12.678094,7.7812454 -5.316956,5.43546 -8.308254,12.625984 -10.162217,19.842992 -2.286709,9.074085 -2.912517,18.465201 -2.919511,27.787968 4.477538,0.0035 8.95511,0.0072 13.432649,0.01075 0.01515,-4.61461 0.1812,-9.235225 0.750938,-13.817748 0.885291,-7.094529 2.677966,-14.334035 6.952769,-20.240036 2.640108,-3.726891 6.363147,-6.601795 10.475927,-8.614219 7.838763,-3.885454 16.660308,-5.546844 25.389778,-5.733092 5.43461,-0.08775 10.88722,0.446596 16.17178,1.706369 6.60535,1.614265 13.09257,4.332091 18.24735,8.78767 4.46766,3.834614 7.36728,9.185289 8.80349,14.797054 1.95692,7.56396 2.03438,15.42225 2.07917,23.18461 4.40072,0.0035 8.80144,0.0073 13.20214,0.01075 -0.0357,-9.963605 -0.23898,-20.05605 -2.76188,-29.762443 -1.79603,-6.95958 -5.12495,-13.746859 -10.61339,-18.612465 C 152.57888,12.322745 147.25882,9.9147273 141.91218,7.9760672 132.74184,4.776214 122.97646,3.4251079 113.26385,3.3757829 Z m 43.73531,61.1284081 c -29.62367,-0.02334 -59.247542,-0.04725 -88.871202,-0.0706 -7.41e-4,0.225606 -0.0031,0.451347 -0.0031,0.676919 29.626369,0.03987 59.252582,0.08497 88.878952,0.124844 -10e-4,-0.243334 -0.003,-0.487618 -0.005,-0.731155 z"/>
    <g id="g1970" style="fill:#000000;fill-opacity:1;stroke-width:1.05762;stroke-dasharray:none" transform="matrix(0.97781403,0,0,0.91429804,499.17575,403.12844)">
      <path style="color:#000000;fill:#000000;fill-opacity:1;stroke-width:1.05762;stroke-dasharray:none" d="m -465.76367,-372.7168 -43.41211,47.8418 3.70312,3.35938 41.92383,-46.20118 h 136.99024 v -5 z" id="path2010"/>
      <path style="color:#000000;fill:#000000;fill-opacity:1;stroke-width:1.05762;stroke-dasharray:none" d="m -464.72852,-372.7168 v 5 h 136.99219 l 41.92383,46.20118 3.70117,-3.35938 -43.41015,-47.8418 z" id="path2007"/>
      <path style="color:#000000;fill:#000000;fill-opacity:1;stroke-width:1.05762;stroke-dasharray:none" d="m -504.68555,-327.08203 -4.50195,2.19922 63.02148,128.95312 101.10157,0.01 v -5.00977 l -97.97266,-0.01 z" id="path2004"/>
      <path style="color:#000000;fill:#000000;fill-opacity:1;stroke-width:1.05762;stroke-dasharray:none" d="m -286.64844,-327.07812 -61.58008,126.11523 h -97.11523 v 5.04492 h 100.26563 l 62.96289,-128.94726 z" id="path2001"/>
    </g>
    <g id="g2014" transform="matrix(0.78033196,0,0,0.78033196,424.54671,364.42712)" style="fill:#0b0002;fill-opacity:1;stroke:#000000;stroke-width:1.28151;stroke-dasharray:none;stroke-opacity:1">
      <ellipse style="fill:#0b0002;fill-opacity:1;fill-rule:evenodd;stroke:#000000;stroke-width:1.28151;stroke-linejoin:bevel;stroke-dasharray:none;stroke-opacity:1" id="path1958" cx="-395.64877" cy="-303.28918" rx="19.45993" ry="17.926172"/>
      <path style="fill:#0b0002;fill-opacity:1;stroke:#000000;stroke-width:1.28151;stroke-linecap:butt;stroke-linejoin:miter;stroke-dasharray:none;stroke-opacity:1" d="m -401.27147,-286.12958 -7.40404,40.71751 h 26.05348 l -7.53844,-40.59874 -5.30476,-0.0567 z" id="path1960" sodipodi:nodetypes="cccccc"/>
    </g>
    <text xml:space="preserve" style="font-size:155.222px;line-height:1.25;font-family:'Noto Sans CJK JP';-inkscape-font-specification:'Noto Sans CJK JP';letter-spacing:0px;word-spacing:0px;stroke-width:0.264583" x="231.6032" y="182.01999" id="text269"><tspan sodipodi:role="line" id="tspan267" style="font-size:155.222px;stroke-width:0.264583" x="231.6032" y="182.01999">パスマン</tspan></text>
  </g>
</svg>
